<svg xmlns="http://www.w3.org/2000/svg" width="32" height="32" fill="#fff" fill-rule="evenodd" xmlns:v="https://vecta.io/nano"><path d="M16.02 19.088c1.7 0 3.077-1.374 3.077-3.07s-1.378-3.07-3.077-3.07-3.077 1.374-3.077 3.07 1.378 3.07 3.077 3.07m3.543-6.214h2.163c.247 0 .448-.2.448-.446v-2.16c0-.246-.2-.446-.448-.446h-2.163c-.247 0-.448.2-.448.446v2.16c0 .246.2.446.448.446M24 22.102A1.9 1.9 0 0 1 22.098 24H9.902A1.9 1.9 0 0 1 8 22.102V9.897A1.9 1.9 0 0 1 9.902 8h12.196A1.9 1.9 0 0 1 24 9.897v12.205zM16 0C7.163 0 0 7.163 0 16s7.163 16 16 16 16-7.164 16-16S24.837 0 16 0h0z"/><path d="M20.886 16.018a4.87 4.87 0 0 1-4.867 4.856 4.87 4.87 0 0 1-4.867-4.856c0-.444.06-.875.173-1.284H9.828v6.958c0 .247.2.447.447.447h11.487c.248 0 .448-.2.448-.447v-6.958h-1.497c.113.41.173.84.173 1.284"/></svg>