<svg xmlns="http://www.w3.org/2000/svg" width="32" height="32" xmlns:v="https://vecta.io/nano"><path fill="#fff" fill-rule="evenodd" d="M22.362 12.737l.01.425c0 4.337-3.302 9.34-9.34 9.34-1.854 0-3.58-.543-5.032-1.474a6.75 6.75 0 0 0 .783.045c1.538 0 2.953-.524 4.077-1.405-1.437-.026-2.65-.975-3.067-2.28a3.31 3.31 0 0 0 .618.058c.3 0 .59-.04.865-.115-1.502-.3-2.633-1.628-2.633-3.218v-.042c.442.246.95.394 1.487.41-.88-.59-1.46-1.594-1.46-2.732 0-.602.162-1.166.445-1.65a9.32 9.32 0 0 0 6.766 3.43 3.29 3.29 0 0 1-.085-.748c0-1.813 1.47-3.283 3.282-3.283.945 0 1.798.4 2.396 1.037a6.57 6.57 0 0 0 2.085-.796 3.3 3.3 0 0 1-1.443 1.816c.664-.08 1.296-.256 1.885-.517a6.68 6.68 0 0 1-1.638 1.699M16 0C7.163 0 0 7.163 0 16s7.163 16 16 16 16-7.164 16-16S24.837 0 16 0"/></svg>